<svg width="4458" height="225" xmlns="http://www.w3.org/2000/svg" xmlns:xlink="http://www.w3.org/1999/xlink" xml:space="preserve" overflow="hidden"><defs><clipPath id="clip0"><rect x="-32" y="1561" width="4458" height="225"/></clipPath></defs><g clip-path="url(#clip0)" transform="translate(32 -1561)"><rect x="-32" y="1561" width="4458" height="206" fill="#FFFFFF"/><path d="M4044 1668 4333.92 1668 4397 1709 4333.92 1750 4044 1750Z" fill="#A6A6A6" fill-rule="evenodd"/><rect x="378" y="1668" width="1732" height="82.0001" fill="#ED7D31"/><rect x="-3.0001" y="1668" width="354" height="82.0001" fill="#A6A6A6"/><text fill="#729E5E" font-family="Consolas,Consolas_MSFontService,sans-serif" font-weight="400" font-size="64" transform="matrix(1 0 0 1 376.487 1644)">-</text><text fill="#729E5E" font-family="Consolas,Consolas_MSFontService,sans-serif" font-weight="400" font-size="64" transform="matrix(1 0 0 1 412.007 1644)">1.797_693_134_862_315_7e308</text><rect x="2137" y="1668" width="121" height="82.0001" fill="#A6A6A6"/><text fill="#FFFFFF" font-family="Calibri,Calibri_MSFontService,sans-serif" font-weight="700" font-size="64" transform="matrix(1 0 0 1 2181.03 1730)">0</text><text fill="#6A9955" font-family="Consolas,Consolas_MSFontService,sans-serif" font-weight="400" font-size="64" transform="matrix(1 0 0 1 1858.05 1644)">-</text><text fill="#6A9955" font-family="Consolas,Consolas_MSFontService,sans-serif" font-weight="400" font-size="64" transform="matrix(1 0 0 1 1893.57 1644)">5e</text><text fill="#6A9955" font-family="Consolas,Consolas_MSFontService,sans-serif" font-weight="400" font-size="64" transform="matrix(1 0 0 1 1964.61 1644)">-</text><text fill="#6A9955" font-family="Consolas,Consolas_MSFontService,sans-serif" font-weight="400" font-size="64" transform="matrix(1 0 0 1 2000.13 1644)">324</text><rect x="2285" y="1668" width="1732" height="82.0001" fill="#ED7D31"/><text fill="#6A9955" font-family="Consolas,Consolas_MSFontService,sans-serif" font-weight="400" font-size="64" transform="matrix(1 0 0 1 2289.94 1644)">5e</text><text fill="#6A9955" font-family="Consolas,Consolas_MSFontService,sans-serif" font-weight="400" font-size="64" transform="matrix(1 0 0 1 2360.98 1644)">-</text><text fill="#6A9955" font-family="Consolas,Consolas_MSFontService,sans-serif" font-weight="400" font-size="64" transform="matrix(1 0 0 1 2396.5 1644)">324</text><text fill="#729E5E" font-family="Consolas,Consolas_MSFontService,sans-serif" font-weight="400" font-size="64" transform="matrix(1 0 0 1 3051.92 1644)">1.797_693_134_862_315_7e308</text></g></svg>